{
  "accessors": [
    {
      "bufferView": 1,
      "componentType": 5126,
      "count": 2296,
      "max": [
        17.870559692382812,
        24.557968139648438,
        29.778711318969727
      ],
      "min": [
        -18.735921859741211,
        -21.03851318359375,
        0.36844399571418762
      ],
      "type": "VEC3"
    },
    {
      "bufferView": 1,
      "byteOffset": 27552,
      "componentType": 5126,
      "count": 2296,
      "max": [
        0.99951809644699097,
        0.9970550537109375,
        0.99794131517410278
      ],
      "min": [
        -0.99748075008392334,
        -0.99970096349716187,
        -0.98246794939041138
      ],
      "type": "VEC3"
    },
    {
      "bufferView": 0,
      "componentType": 5125,
      "count": 3444,
      "max": [
        2295
      ],
      "min": [
        0
      ],
      "type": "SCALAR"
    },
    {
      "bufferView": 1,
      "byteOffset": 55104,
      "componentType": 5126,
      "count": 24,
      "max": [
        3.6210219860076904,
        2.4559149742126465,
        23.569248199462891
      ],
      "min": [
        -3.9250240325927734,
        1.2654809951782227,
        22.806840896606445
      ],
      "type": "VEC3"
    },
    {
      "bufferView": 1,
      "byteOffset": 55392,
      "componentType": 5126,
      "count": 24,
      "max": [
        0.99790513515472412,
        0.11550375074148178,
        0.088398225605487823
      ],
      "min": [
        -0.99734878540039062,
        -0.17409291863441467,
        -0.046102255582809448
      ],
      "type": "VEC3"
    },
    {
      "bufferView": 0,
      "byteOffset": 13776,
      "componentType": 5125,
      "count": 36,
      "max": [
        23
      ],
      "min": [
        0
      ],
      "type": "SCALAR"
    },
    {
      "bufferView": 1,
      "byteOffset": 55680,
      "componentType": 5126,
      "count": 824,
      "max": [
        17.870559692382812,
        24.557968139648438,
        14.429900169372559
      ],
      "min": [
        -18.694982528686523,
        -21.03851318359375,
        0.17181399464607239
      ],
      "type": "VEC3"
    },
    {
      "bufferView": 1,
      "byteOffset": 65568,
      "componentType": 5126,
      "count": 824,
      "max": [
        0.99477922916412354,
        0.90695977210998535,
        0.089301064610481262
      ],
      "min": [
        -0.99218887090682983,
        -0.86273473501205444,
        -0.9995388388633728
      ],
      "type": "VEC3"
    },
    {
      "bufferView": 0,
      "byteOffset": 13920,
      "componentType": 5125,
      "count": 1236,
      "max": [
        823
      ],
      "min": [
        0
      ],
      "type": "SCALAR"
    }
  ],
  "asset": {
    "extras": {
      "author": "yifatshaik (https://sketchfab.com/yifatshaik)",
      "license": "CC-BY-4.0 (http://creativecommons.org/licenses/by/4.0/)",
      "source": "https://sketchfab.com/models/f791893db35147a5bba081c7b04af8db",
      "title": "Octopus"
    },
    "generator": "Sketchfab-3.18.2",
    "version": "2.0"
  },
  "bufferViews": [
    {
      "buffer": 0,
      "byteLength": 18864,
      "byteOffset": 0,
      "name": "floatBufferViews",
      "target": 34963
    },
    {
      "buffer": 0,
      "byteLength": 75456,
      "byteOffset": 18864,
      "byteStride": 12,
      "name": "floatBufferViews",
      "target": 34962
    }
  ],
  "buffers": [
    {
      "byteLength": 94320,
      "uri": "scene.bin"
    }
  ],
  "materials": [
    {
      "doubleSided": true,
      "emissiveFactor": [
        0,
        0,
        0
      ],
      "name": "Body",
      "pbrMetallicRoughness": {
        "baseColorFactor": [
          0.67513953950000005,
          0.081515558500000002,
          0.081515558500000002,
          1
        ],
        "metallicFactor": 0,
        "roughnessFactor": 0.59999999999999998
      }
    },
    {
      "doubleSided": true,
      "emissiveFactor": [
        0,
        0,
        0
      ],
      "name": "Eyes",
      "pbrMetallicRoughness": {
        "baseColorFactor": [
          0,
          0,
          0,
          1
        ],
        "metallicFactor": 0,
        "roughnessFactor": 0.59999999999999998
      }
    },
    {
      "doubleSided": true,
      "emissiveFactor": [
        0,
        0,
        0
      ],
      "name": "tuntacles",
      "pbrMetallicRoughness": {
        "baseColorFactor": [
          0.1154274894,
          0.60895917629999996,
          0.69940240549999999,
          1
        ],
        "metallicFactor": 0,
        "roughnessFactor": 0.59999999999999998
      }
    }
  ],
  "meshes": [
    {
      "primitives": [
        {
          "attributes": {
            "NORMAL": 1,
            "POSITION": 0
          },
          "indices": 2,
          "material": 0,
          "mode": 4
        }
      ]
    },
    {
      "primitives": [
        {
          "attributes": {
            "NORMAL": 4,
            "POSITION": 3
          },
          "indices": 5,
          "material": 1,
          "mode": 4
        }
      ]
    },
    {
      "primitives": [
        {
          "attributes": {
            "NORMAL": 7,
            "POSITION": 6
          },
          "indices": 8,
          "material": 2,
          "mode": 4
        }
      ]
    }
  ],
  "nodes": [
    {
      "children": [
        1
      ],
      "name": "RootNode (gltf orientation matrix)",
      "rotation": [
        -0.70710678118654746,
        -0,
        -0,
        0.70710678118654757
      ]
    },
    {
      "children": [
        2
      ],
      "name": "RootNode (model correction matrix)"
    },
    {
      "children": [
        3,
        4,
        5
      ],
      "name": "53799bc264d5437eb9a6b6f288d5749c.obj.cleaner"
    },
    {
      "mesh": 0,
      "name": ""
    },
    {
      "mesh": 1,
      "name": ""
    },
    {
      "mesh": 2,
      "name": ""
    }
  ],
  "scene": 0,
  "scenes": [
    {
      "name": "OSG_Scene",
      "nodes": [
        0
      ]
    }
  ]
}

