{
  "accessors": [
    {
      "bufferView": 2,
      "componentType": 5126,
      "count": 1670,
      "max": [
        1.8497689962387085,
        0.61658000946044922,
        10.254338264465332
      ],
      "min": [
        -1.6316440105438232,
        -0.66323798894882202,
        -1.7225309610366821
      ],
      "type": "VEC3"
    },
    {
      "bufferView": 2,
      "byteOffset": 20040,
      "componentType": 5126,
      "count": 1670,
      "max": [
        0.99992597103118896,
        1,
        0.83870697021484375
      ],
      "min": [
        -0.99992597103118896,
        -1,
        -0.95204997062683105
      ],
      "type": "VEC3"
    },
    {
      "bufferView": 3,
      "componentType": 5126,
      "count": 1670,
      "max": [
        1,
        1,
        0.93755918741226196,
        1
      ],
      "min": [
        -1,
        -1,
        -0.96347296237945557,
        -1
      ],
      "type": "VEC4"
    },
    {
      "bufferView": 1,
      "componentType": 5126,
      "count": 1670,
      "max": [
        0.97078597545623779,
        0.99933302402496338
      ],
      "min": [
        0.030187999829649925,
        0.016685999929904938
      ],
      "type": "VEC2"
    },
    {
      "bufferView": 0,
      "componentType": 5125,
      "count": 3348,
      "max": [
        1669
      ],
      "min": [
        0
      ],
      "type": "SCALAR"
    }
  ],
  "asset": {
    "extras": {
      "author": "lemon93 (https://sketchfab.com/lemon93)",
      "license": "CC-BY-SA-4.0 (http://creativecommons.org/licenses/by-sa/4.0/)",
      "source": "https://sketchfab.com/models/8610d1ac5a984f07a190ed95bd2c2801",
      "title": "Flame Sword - with full download link"
    },
    "generator": "Sketchfab-3.29.3",
    "version": "2.0"
  },
  "bufferViews": [
    {
      "buffer": 0,
      "byteLength": 13392,
      "byteOffset": 0,
      "name": "floatBufferViews",
      "target": 34963
    },
    {
      "buffer": 0,
      "byteLength": 13360,
      "byteOffset": 13392,
      "byteStride": 8,
      "name": "floatBufferViews",
      "target": 34962
    },
    {
      "buffer": 0,
      "byteLength": 40080,
      "byteOffset": 26752,
      "byteStride": 12,
      "name": "floatBufferViews",
      "target": 34962
    },
    {
      "buffer": 0,
      "byteLength": 26720,
      "byteOffset": 66832,
      "byteStride": 16,
      "name": "floatBufferViews",
      "target": 34962
    }
  ],
  "buffers": [
    {
      "byteLength": 93552,
      "uri": "scene.bin"
    }
  ],
  "images": [
    {
      "uri": "textures/Scene_-_Root_emissive.jpg"
    },
    {
      "uri": "textures/Scene_-_Root_baseColor.jpg"
    },
    {
      "uri": "textures/Scene_-_Root_normal.jpg"
    }
  ],
  "materials": [
    {
      "doubleSided": false,
      "emissiveFactor": [
        1,
        1,
        1
      ],
      "emissiveTexture": {
        "index": 0,
        "texCoord": 0
      },
      "name": "Scene_-_Root",
      "normalTexture": {
        "index": 2,
        "scale": 1,
        "texCoord": 0
      },
      "pbrMetallicRoughness": {
        "baseColorFactor": [
          1,
          1,
          1,
          1
        ],
        "baseColorTexture": {
          "index": 1,
          "texCoord": 0
        },
        "metallicFactor": 0,
        "roughnessFactor": 0.59999999999999998
      }
    }
  ],
  "meshes": [
    {
      "primitives": [
        {
          "attributes": {
            "NORMAL": 1,
            "POSITION": 0,
            "TANGENT": 2,
            "TEXCOORD_0": 3
          },
          "indices": 4,
          "material": 0,
          "mode": 4
        }
      ]
    }
  ],
  "nodes": [
    {
      "children": [
        1
      ],
      "name": "RootNode (gltf orientation matrix)",
      "rotation": [
        -0.70710678118654746,
        -0,
        -0,
        0.70710678118654757
      ]
    },
    {
      "children": [
        2
      ],
      "name": "RootNode (model correction matrix)"
    },
    {
      "children": [
        3
      ],
      "name": "63cb0cf188644e5494046a0c89821feb.obj.cleaner"
    },
    {
      "mesh": 0,
      "name": ""
    }
  ],
  "samplers": [
    {
      "magFilter": 9729,
      "minFilter": 9987,
      "wrapS": 10497,
      "wrapT": 10497
    }
  ],
  "scene": 0,
  "scenes": [
    {
      "name": "OSG_Scene",
      "nodes": [
        0
      ]
    }
  ],
  "textures": [
    {
      "sampler": 0,
      "source": 0
    },
    {
      "sampler": 0,
      "source": 1
    },
    {
      "sampler": 0,
      "source": 2
    }
  ]
}

