{
  "accessors": [
    {
      "bufferView": 2,
      "componentType": 5126,
      "count": 3141,
      "max": [
        0.6612200140953064,
        0.50221002101898193,
        2.0771799087524414
      ],
      "min": [
        -0.6612200140953064,
        -0.51235997676849365,
        2.9999999242136255e-05
      ],
      "type": "VEC3"
    },
    {
      "bufferView": 2,
      "byteOffset": 37692,
      "componentType": 5126,
      "count": 3141,
      "max": [
        0.99999988079071045,
        0.99989277124404907,
        1
      ],
      "min": [
        -0.99999988079071045,
        -1,
        -1
      ],
      "type": "VEC3"
    },
    {
      "bufferView": 3,
      "componentType": 5126,
      "count": 3141,
      "max": [
        1,
        0.9999692440032959,
        1,
        1
      ],
      "min": [
        -0.99942046403884888,
        -0.9999350905418396,
        -0.9997870922088623,
        -1
      ],
      "type": "VEC4"
    },
    {
      "bufferView": 1,
      "componentType": 5126,
      "count": 3141,
      "max": [
        0.9913100004196167,
        0.99655002355575562
      ],
      "min": [
        0.0044399998150765896,
        -9.9999997473787516e-05
      ],
      "type": "VEC2"
    },
    {
      "bufferView": 0,
      "componentType": 5125,
      "count": 4944,
      "max": [
        3140
      ],
      "min": [
        0
      ],
      "type": "SCALAR"
    },
    {
      "bufferView": 4,
      "componentType": 5126,
      "count": 39,
      "max": [
        1,
        0.81025999784469604,
        0.77161997556686401,
        0,
        0.98726999759674072,
        1,
        0.99997001886367798,
        0,
        0.010599999688565731,
        1,
        1,
        0,
        4.3186697959899902,
        6.9538998603820801,
        0.47005000710487366,
        1
      ],
      "min": [
        -1,
        -0.81025999784469604,
        -0.77161997556686401,
        0,
        -0.98728001117706299,
        -1,
        -1,
        0,
        -0.0054100002162158489,
        -0.99976998567581177,
        0,
        0,
        -4.2180399894714355,
        -13.343740463256836,
        -7.2336301803588867,
        1
      ],
      "type": "MAT4"
    }
  ],
  "asset": {
    "extras": {
      "author": "Sebastian Lague (https://sketchfab.com/SebastianL)",
      "license": "CC-BY-4.0 (http://creativecommons.org/licenses/by/4.0/)",
      "source": "https://sketchfab.com/models/b2ca55ab706c4b1ba1c6475d8b3c5bfd",
      "title": "Low poly character (rigged)"
    },
    "generator": "Sketchfab-3.29.3",
    "version": "2.0"
  },
  "bufferViews": [
    {
      "buffer": 0,
      "byteLength": 19776,
      "byteOffset": 0,
      "name": "floatBufferViews",
      "target": 34963
    },
    {
      "buffer": 0,
      "byteLength": 25128,
      "byteOffset": 19776,
      "byteStride": 8,
      "name": "floatBufferViews",
      "target": 34962
    },
    {
      "buffer": 0,
      "byteLength": 75384,
      "byteOffset": 44904,
      "byteStride": 12,
      "name": "floatBufferViews",
      "target": 34962
    },
    {
      "buffer": 0,
      "byteLength": 50256,
      "byteOffset": 120288,
      "byteStride": 16,
      "name": "floatBufferViews",
      "target": 34962
    },
    {
      "buffer": 0,
      "byteLength": 2496,
      "byteOffset": 170544,
      "byteStride": 64,
      "name": "floatBufferViews"
    }
  ],
  "buffers": [
    {
      "byteLength": 173040,
      "uri": "scene.bin"
    }
  ],
  "extensionsUsed": [
    "KHR_materials_unlit"
  ],
  "images": [
    {
      "uri": "textures/Character_baseColor.jpg"
    }
  ],
  "materials": [
    {
      "doubleSided": true,
      "emissiveFactor": [
        0,
        0,
        0
      ],
      "extensions": {
        "KHR_materials_unlit": {}
      },
      "name": "Character",
      "pbrMetallicRoughness": {
        "baseColorFactor": [
          1,
          1,
          1,
          1
        ],
        "baseColorTexture": {
          "index": 0,
          "texCoord": 0
        },
        "metallicFactor": 0,
        "roughnessFactor": 1
      }
    }
  ],
  "meshes": [
    {
      "name": "Character",
      "primitives": [
        {
          "attributes": {
            "NORMAL": 1,
            "POSITION": 0,
            "TANGENT": 2,
            "TEXCOORD_0": 3
          },
          "indices": 4,
          "material": 0,
          "mode": 4
        }
      ]
    }
  ],
  "nodes": [
    {
      "children": [
        1
      ],
      "name": "RootNode (gltf orientation matrix)",
      "rotation": [
        -0.70710678118654746,
        -0,
        -0,
        0.70710678118654757
      ]
    },
    {
      "children": [
        2
      ],
      "name": "RootNode (model correction matrix)"
    },
    {
      "children": [
        3
      ],
      "name": "Root"
    },
    {
      "children": [
        4,
        43
      ],
      "matrix": [
        0.28191000000000005,
        0,
        0,
        0,
        0,
        0.28191000000000005,
        0,
        0,
        0,
        0,
        0.28191000000000005,
        0,
        0,
        0,
        0,
        1
      ],
      "name": "Armature"
    },
    {
      "children": [
        5,
        6
      ],
      "name": "Armature_rootJoint"
    },
    {
      "name": "Hat",
      "rotation": [
        0.7071068286895752,
        0,
        0,
        0.7071068286895752
      ],
      "scale": [
        1,
        1,
        1
      ],
      "translation": [
        0.052480001002550125,
        -0.058290001004934311,
        13.343740463256836
      ]
    },
    {
      "children": [
        7,
        29,
        30,
        36,
        37
      ],
      "name": "Root",
      "rotation": [
        0,
        0,
        1,
        0
      ],
      "scale": [
        1,
        1,
        1
      ],
      "translation": [
        0.052480001002550125,
        -0.058290001004934311,
        0
      ]
    },
    {
      "children": [
        8,
        25,
        27
      ],
      "name": "Torso",
      "rotation": [
        0.682975172996521,
        0,
        0,
        0.73044157028198242
      ],
      "scale": [
        1,
        1.0000030994415283,
        1.0000030994415283
      ],
      "translation": [
        0,
        0,
        5.6119399070739746
      ]
    },
    {
      "children": [
        9,
        11,
        18
      ],
      "name": "Chest",
      "rotation": [
        0,
        0.99850904941558838,
        0.054586421698331833,
        0
      ],
      "scale": [
        1,
        0.99999934434890747,
        0.99999934434890747
      ],
      "translation": [
        0,
        2.4737899303436279,
        0
      ]
    },
    {
      "children": [
        10
      ],
      "name": "Neck",
      "rotation": [
        0,
        0.9949491024017334,
        0.10038173943758011,
        0
      ],
      "scale": [
        1,
        1.0000030994415283,
        1.0000030994415283
      ],
      "translation": [
        0,
        2.4279000759124756,
        0
      ]
    },
    {
      "name": "Head",
      "rotation": [
        0.075566023588180542,
        0,
        0,
        0.99714082479476929
      ],
      "scale": [
        1,
        1.0000004768371582,
        1.0000004768371582
      ],
      "translation": [
        0,
        0.45899999141693115,
        0
      ]
    },
    {
      "children": [
        12
      ],
      "name": "Upper Arm.L",
      "rotation": [
        0.71300452947616577,
        0.20144155621528625,
        0.61636853218078613,
        -0.26671266555786133
      ],
      "scale": [
        0.99999809265136719,
        0.99999415874481201,
        1.0000009536743164
      ],
      "translation": [
        1.3039699792861938,
        1.8287199735641479,
        -0.23969000577926636
      ]
    },
    {
      "children": [
        13
      ],
      "name": "Lower Arm.L",
      "rotation": [
        -0.035938188433647156,
        0.20809836685657501,
        -0.15384663641452789,
        0.96526408195495605
      ],
      "scale": [
        0.99999582767486572,
        1.0000011920928955,
        1.0000041723251343
      ],
      "translation": [
        0,
        2.5731201171875,
        0
      ]
    },
    {
      "children": [
        14,
        16
      ],
      "name": "Hand.L",
      "rotation": [
        0.0801243856549263,
        0.082104325294494629,
        -0.06640346348285675,
        0.99117594957351685
      ],
      "scale": [
        1.0000008344650269,
        0.99999743700027466,
        1.0000036954879761
      ],
      "translation": [
        0,
        2.3018100261688232,
        0
      ]
    },
    {
      "children": [
        15
      ],
      "name": "Fingers01.L",
      "rotation": [
        -0.18513597548007965,
        0.29298487305641174,
        -0.18453821539878845,
        0.91969037055969238
      ],
      "scale": [
        0.99999862909317017,
        0.99999767541885376,
        1.0000019073486328
      ],
      "translation": [
        0,
        0.82042998075485229,
        0
      ]
    },
    {
      "name": "Fingers02.L",
      "rotation": [
        -0.008895164355635643,
        0.41645735502243042,
        -0.15367802977561951,
        0.89602857828140259
      ],
      "scale": [
        0.9999966025352478,
        1.0000026226043701,
        1.0000015497207642
      ],
      "translation": [
        0,
        0.29616999626159668,
        0
      ]
    },
    {
      "children": [
        17
      ],
      "name": "Thumb01.L",
      "rotation": [
        0.25669589638710022,
        0.29909762740135193,
        -0.69624853134155273,
        0.59990483522415161
      ],
      "scale": [
        0.99999719858169556,
        1.0000003576278687,
        1.0000064373016357
      ],
      "translation": [
        0.22773000597953796,
        0.53842997550964355,
        -0.0059000002220273018
      ]
    },
    {
      "name": "Thumb02.L",
      "rotation": [
        0.013699518516659737,
        -0.0013609087327495217,
        -0.11009757965803146,
        0.99382543563842773
      ],
      "scale": [
        0.99999469518661499,
        1.0000007152557373,
        0.99999845027923584
      ],
      "translation": [
        0,
        0.26704001426696777,
        0
      ]
    },
    {
      "children": [
        19
      ],
      "name": "Upper Arm.R",
      "rotation": [
        0.71300452947616577,
        -0.20144155621528625,
        -0.61636853218078613,
        -0.26671266555786133
      ],
      "scale": [
        0.99999809265136719,
        0.99999415874481201,
        1.0000009536743164
      ],
      "translation": [
        -1.3039699792861938,
        1.8287199735641479,
        -0.23969000577926636
      ]
    },
    {
      "children": [
        20
      ],
      "name": "Lower Arm.R",
      "rotation": [
        -0.035938188433647156,
        -0.20809836685657501,
        0.15384663641452789,
        0.96526408195495605
      ],
      "scale": [
        0.99999582767486572,
        1.0000011920928955,
        1.0000041723251343
      ],
      "translation": [
        0,
        2.5731201171875,
        0
      ]
    },
    {
      "children": [
        21,
        23
      ],
      "name": "Hand.R",
      "rotation": [
        0.0801243856549263,
        -0.082104325294494629,
        0.06640346348285675,
        0.99117594957351685
      ],
      "scale": [
        1.0000008344650269,
        0.99999743700027466,
        1.0000036954879761
      ],
      "translation": [
        0,
        2.3018100261688232,
        0
      ]
    },
    {
      "children": [
        22
      ],
      "name": "Fingers01.R",
      "rotation": [
        -0.18513597548007965,
        -0.29298487305641174,
        0.18453821539878845,
        0.91969037055969238
      ],
      "scale": [
        0.99999862909317017,
        0.99999767541885376,
        1.0000019073486328
      ],
      "translation": [
        0,
        0.82042998075485229,
        0
      ]
    },
    {
      "name": "Fingers02.R",
      "rotation": [
        -0.008895164355635643,
        -0.41645735502243042,
        0.15367802977561951,
        0.89602857828140259
      ],
      "scale": [
        0.9999966025352478,
        1.0000026226043701,
        1.0000015497207642
      ],
      "translation": [
        0,
        0.29616999626159668,
        0
      ]
    },
    {
      "children": [
        24
      ],
      "name": "Thumb01.R",
      "rotation": [
        0.25669589638710022,
        -0.29909762740135193,
        0.69624853134155273,
        0.59990483522415161
      ],
      "scale": [
        0.99999719858169556,
        1.0000003576278687,
        1.0000064373016357
      ],
      "translation": [
        -0.22773000597953796,
        0.53842997550964355,
        -0.0059000002220273018
      ]
    },
    {
      "name": "Thumb02.R",
      "rotation": [
        0.013699518516659737,
        0.0013609087327495217,
        0.11009757965803146,
        0.99382543563842773
      ],
      "scale": [
        0.99999469518661499,
        1.0000007152557373,
        0.99999845027923584
      ],
      "translation": [
        0,
        0.26704001426696777,
        0
      ]
    },
    {
      "children": [
        26
      ],
      "name": "Upper Leg.L",
      "rotation": [
        0.999015212059021,
        0,
        0,
        -0.044369261711835861
      ],
      "scale": [
        1,
        0.99999719858169556,
        0.9999772310256958
      ],
      "translation": [
        -0.87544000148773193,
        0.0057100001722574234,
        0.028470000252127647
      ]
    },
    {
      "name": "Lower Leg.L",
      "rotation": [
        0,
        0.99862712621688843,
        -0.052382033318281174,
        0
      ],
      "scale": [
        1,
        0.99999773502349854,
        0.99999773502349854
      ],
      "translation": [
        0,
        2.125420093536377,
        0
      ]
    },
    {
      "children": [
        28
      ],
      "name": "Upper Leg.R",
      "rotation": [
        0.999015212059021,
        0,
        0,
        -0.044369261711835861
      ],
      "scale": [
        1,
        0.99999719858169556,
        0.9999772310256958
      ],
      "translation": [
        0.87544000148773193,
        0.0057100001722574234,
        0.028470000252127647
      ]
    },
    {
      "name": "Lower Leg.R",
      "rotation": [
        0,
        0.99862712621688843,
        -0.052382033318281174,
        0
      ],
      "scale": [
        1,
        0.99999773502349854,
        0.99999773502349854
      ],
      "translation": [
        0,
        2.125420093536377,
        0
      ]
    },
    {
      "name": "Leg pole target.L",
      "rotation": [
        0,
        0,
        0,
        1
      ],
      "scale": [
        1,
        1,
        1
      ],
      "translation": [
        -0.87544000148773193,
        2.3787899017333984,
        3.4946300983428955
      ]
    },
    {
      "children": [
        31,
        33,
        35
      ],
      "name": "Leg Control.L",
      "rotation": [
        0,
        0,
        0,
        1
      ],
      "scale": [
        1,
        1,
        1
      ],
      "translation": [
        -0.87238997220993042,
        -0.6554800271987915,
        0.00063000002410262823
      ]
    },
    {
      "children": [
        32
      ],
      "name": "Foot.L",
      "rotation": [
        -0.29840922355651855,
        -0.0061557632870972157,
        0.0019254024373367429,
        0.95441633462905884
      ],
      "scale": [
        1.000002384185791,
        1.0000057220458984,
        1.0000016689300537
      ],
      "translation": [
        -0.0030499999411404133,
        0.44861999154090881,
        0.79799002408981323
      ]
    },
    {
      "name": "Toes.L",
      "rotation": [
        0.28448480367660522,
        0.0027251355350017548,
        0.0085075553506612778,
        0.95863902568817139
      ],
      "scale": [
        1.0000036954879761,
        0.99999737739562988,
        0.99999368190765381
      ],
      "translation": [
        0,
        1.3538500070571899,
        0
      ]
    },
    {
      "children": [
        34
      ],
      "name": "Foot Roll.L",
      "rotation": [
        0.0047831223346292973,
        0.29837659001350403,
        0.95441585779190063,
        0.006236532237380743
      ],
      "scale": [
        1.0000048875808716,
        0.99999469518661499,
        1.0000014305114746
      ],
      "translation": [
        -0.0030499999411404133,
        1.5613499879837036,
        0.026779999956488609
      ]
    },
    {
      "name": "Leg ik.L",
      "rotation": [
        -0.29837659001350403,
        0.0047831223346292973,
        0.006236532237380743,
        0.95441585779190063
      ],
      "scale": [
        1.0000048875808716,
        0.99999469518661499,
        1.0000014305114746
      ],
      "translation": [
        0,
        1.353909969329834,
        0
      ]
    },
    {
      "name": "Toes Control.L",
      "rotation": [
        -0.014616601169109344,
        0,
        0,
        0.9998931884765625
      ],
      "scale": [
        1,
        0.99999731779098511,
        0.99999731779098511
      ],
      "translation": [
        -0.015300000086426735,
        1.5613499879837036,
        0.026779999956488609
      ]
    },
    {
      "name": "Leg pole target.R",
      "rotation": [
        0,
        0,
        0,
        1
      ],
      "scale": [
        1,
        1,
        1
      ],
      "translation": [
        0.87544000148773193,
        2.3787899017333984,
        3.4946300983428955
      ]
    },
    {
      "children": [
        38,
        40,
        42
      ],
      "name": "Leg Control.R",
      "rotation": [
        0,
        0,
        0,
        1
      ],
      "scale": [
        1,
        1,
        1
      ],
      "translation": [
        0.87238997220993042,
        -0.6554800271987915,
        0.00063000002410262823
      ]
    },
    {
      "children": [
        39
      ],
      "name": "Foot.R",
      "rotation": [
        -0.29834151268005371,
        0.0034184399992227554,
        -0.010551112703979015,
        0.95439475774765015
      ],
      "scale": [
        0.99999606609344482,
        0.9999956488609314,
        1.0000002384185791
      ],
      "translation": [
        0.0030499999411404133,
        0.44861999154090881,
        0.79799002408981323
      ]
    },
    {
      "name": "Toes.R",
      "rotation": [
        0.28431341052055359,
        -0.007026714738458395,
        0.020842725411057472,
        0.95847904682159424
      ],
      "scale": [
        0.99999654293060303,
        0.99999409914016724,
        0.99999982118606567
      ],
      "translation": [
        0,
        1.3540699481964111,
        0
      ]
    },
    {
      "children": [
        41
      ],
      "name": "Foot Roll.R",
      "rotation": [
        -0.0047831223346292973,
        0.29837659001350403,
        0.95441585779190063,
        -0.006236532237380743
      ],
      "scale": [
        1.0000048875808716,
        0.99999469518661499,
        1.0000014305114746
      ],
      "translation": [
        0.0030499999411404133,
        1.5613499879837036,
        0.026779999956488609
      ]
    },
    {
      "name": "Leg ik.R",
      "rotation": [
        -0.29837659001350403,
        -0.0047831223346292973,
        -0.006236532237380743,
        0.95441585779190063
      ],
      "scale": [
        1.0000048875808716,
        0.99999469518661499,
        1.0000014305114746
      ],
      "translation": [
        0,
        1.353909969329834,
        0
      ]
    },
    {
      "name": "Toes Control.R",
      "rotation": [
        -0.014616601169109344,
        0,
        0,
        0.9998931884765625
      ],
      "scale": [
        1,
        0.99999731779098511,
        0.99999731779098511
      ],
      "translation": [
        0.015300000086426735,
        1.5613499879837036,
        0.026779999956488609
      ]
    },
    {
      "children": [
        44
      ],
      "matrix": [
        7.2918400000000005,
        0,
        0,
        0,
        0,
        7.2918400000000005,
        0,
        0,
        0,
        0,
        7.2918400000000005,
        0,
        0.052480000000000006,
        -0.058290000000000008,
        0,
        1
      ],
      "name": "Character"
    },
    {
      "mesh": 0,
      "name": "Character"
    }
  ],
  "samplers": [
    {
      "magFilter": 9729,
      "minFilter": 9987,
      "wrapS": 10497,
      "wrapT": 10497
    }
  ],
  "scene": 0,
  "scenes": [
    {
      "name": "OSG_Scene",
      "nodes": [
        0
      ]
    }
  ],
  "skins": [
    {
      "inverseBindMatrices": 5,
      "joints": [
        4,
        5,
        6,
        7,
        8,
        9,
        10,
        11,
        12,
        13,
        14,
        15,
        16,
        17,
        18,
        19,
        20,
        21,
        22,
        23,
        24,
        25,
        26,
        27,
        28,
        29,
        30,
        31,
        32,
        33,
        34,
        35,
        36,
        37,
        38,
        39,
        40,
        41,
        42
      ],
      "skeleton": 4
    }
  ],
  "textures": [
    {
      "sampler": 0,
      "source": 0
    }
  ]
}

